<svg width="192" height="192" viewBox="0 0 192 192" fill="none" xmlns="http://www.w3.org/2000/svg">
<circle cx="96" cy="96" r="96" fill="#E9AFB8"/>
<path d="M132.975 119.487C135.535 118.875 138.033 118.017 140.441 116.922C159.57 108.227 162.759 89.7555 162.886 88.9735C163.074 87.81 162.57 86.6927 161.633 86.1977C161.111 85.921 149.715 80.0211 135.309 82.4476C138.288 71.5683 137.213 62.1025 135.68 55.859C133.855 48.4321 131.037 43.8797 130.918 43.6894C130.331 42.7514 129.236 42.3709 128.201 42.7446C127.991 42.8205 122.993 44.6549 117.023 49.3718C112.968 52.5753 107.866 57.6254 103.791 64.9421C103.513 62.738 103.121 60.7445 102.694 59.0027C100.869 51.5757 98.0513 47.0233 97.9321 46.833C97.3448 45.8951 96.2501 45.5145 95.2151 45.8883C95.0052 45.9642 90.0067 47.7985 84.0365 52.5155C78.9934 56.4996 72.3286 63.3363 68.0375 73.8443C58.1939 62.8815 45.64 60.3859 45.061 60.2763C44.0131 60.077 42.923 60.6509 42.3618 61.6969C41.9903 62.3886 33.3773 78.855 43.1348 97.5869C44.3689 99.956 45.818 102.194 47.4651 104.277C36.177 107.974 30.4869 117.697 30.2201 118.163C29.6286 119.195 29.6896 120.485 30.371 121.356C30.7259 121.808 39.2276 132.423 53.98 130.54C58.9513 129.906 62.851 129.406 65.9874 128.337L60.2465 145.152C59.7555 146.59 60.3972 148.118 61.6801 148.564C62.9629 149.01 64.4009 148.205 64.8919 146.767L70.6327 129.952C72.4512 132.744 75.2175 135.562 78.7468 139.152C82.0143 142.476 85.5434 144.463 88.8718 145.62C96.2114 148.171 102.569 146.686 102.951 146.592C104.019 146.33 104.855 145.352 105.019 144.171C105.092 143.642 106.534 132.532 99.9878 122.63C100.509 122.506 101.026 122.368 101.542 122.224C102.683 126.8 106.312 130.493 111.733 136.008C115.001 139.332 118.53 141.319 121.858 142.476C129.198 145.027 135.555 143.542 135.938 143.449C137.005 143.187 137.841 142.208 138.005 141.027C138.079 140.499 139.52 129.388 132.975 119.487ZM105.809 115.048C102.389 116.603 98.7564 117.615 95.0132 118.056C94.0347 118.172 93.1717 118.903 92.8093 119.924C92.4466 120.946 92.6521 122.067 93.3336 122.788C99.5995 129.416 100.294 137.716 100.234 141.566C96.654 141.908 88.8194 141.723 82.255 135.044C76.0201 128.701 73.4755 125.816 73.1763 122.502L75.5187 115.641L99.9431 107.793C101.282 107.362 102.119 105.844 101.813 104.4C101.507 102.957 100.173 102.136 98.8338 102.566L77.6594 109.37L87.1903 81.4536C87.6813 80.0155 87.0396 78.4878 85.7567 78.0417C84.4738 77.5956 83.0359 78.4002 82.5449 79.8383L72.9993 107.798L60.4287 89.2127C59.6363 88.0415 58.0844 87.8593 56.9625 88.8055C55.8402 89.7521 55.5729 91.4689 56.3651 92.6401L70.8586 114.068L68.5317 120.884C66.2735 123.311 62.5087 124.002 53.7235 125.123C44.4733 126.304 38.1874 121.577 35.5799 119.086C37.8974 115.996 43.5546 109.847 52.6115 108.562C53.5908 108.423 54.4415 107.67 54.7827 106.639C55.1238 105.609 54.8926 104.493 54.1916 103.791C51.503 101.1 49.2498 98.0263 47.4941 94.6564C44.005 87.9583 42.7877 80.8253 43.8751 73.4543C44.342 70.2894 45.1578 67.7485 45.7767 66.1417C49.874 67.365 59.8178 71.1794 66.8101 80.7984C67.3634 81.5593 68.2747 81.8974 69.181 81.6768C70.0873 81.4559 70.8415 80.713 71.1429 79.7435C71.297 79.248 71.4296 78.8386 71.5604 78.4555C74.5071 69.8246 79.5718 62.6031 86.6141 56.9914C89.9078 54.3669 92.8933 52.7233 94.6989 51.8488C95.5883 53.6615 96.9367 56.8115 97.9294 60.9259C100.052 69.7244 99.6342 78.5616 96.6876 87.1925C96.5612 87.5625 96.4307 87.9271 96.2977 88.2881C95.949 89.2357 96.0906 90.2838 96.6667 91.0178C97.2427 91.7518 98.1601 92.0539 99.0575 91.8051C110.419 88.6529 120.572 91.9093 124.513 93.5081C123.194 98.0435 118.743 109.169 105.809 115.048ZM115.242 131.901C109.754 126.319 107.126 123.414 106.371 120.538C106.734 120.386 107.096 120.229 107.455 120.066C126.584 111.371 129.773 92.8991 129.899 92.117C130.087 90.9535 129.583 89.8362 128.647 89.3412C128.125 89.0643 116.729 83.1646 102.323 85.5912C103.129 82.6483 103.636 79.8098 103.919 77.1098C104.003 76.9494 104.074 76.7787 104.13 76.5988C104.284 76.1032 104.417 75.6939 104.548 75.3108C107.494 66.6799 112.559 59.4583 119.601 53.8467C122.895 51.2222 125.88 49.5786 127.686 48.7041C128.575 50.5168 129.924 53.6668 130.916 57.7811C133.039 66.5796 132.621 75.4168 129.674 84.0477C129.548 84.4177 129.418 84.7823 129.285 85.1433C128.936 86.0909 129.078 87.139 129.654 87.873C130.229 88.6067 131.147 88.9089 132.044 88.6603C143.402 85.5089 153.552 88.7618 157.497 90.3619C157.012 92.0268 156.111 94.5714 154.545 97.3938C150.927 103.916 145.628 108.798 138.796 111.904C135.376 113.458 131.744 114.471 128 114.912C127.022 115.027 126.159 115.759 125.796 116.78C125.434 117.801 125.639 118.923 126.321 119.644C132.586 126.272 133.281 134.573 133.221 138.423C129.641 138.764 121.806 138.579 115.242 131.901Z" fill="#A24A69"/>
</svg>
