<?xml version="1.0" encoding="UTF-8" standalone="no" ?>
<!DOCTYPE svg PUBLIC "-//W3C//DTD SVG 1.1//EN" "http://www.w3.org/Graphics/SVG/1.1/DTD/svg11.dtd">
<svg xmlns="http://www.w3.org/2000/svg" xmlns:xlink="http://www.w3.org/1999/xlink" version="1.1" width="350" height="350" viewBox="0 0 350 350" xml:space="preserve">
<desc>Created with Fabric.js 1.7.22</desc>
<defs>
</defs>
<g id="icon" style="stroke: none; stroke-width: 1; stroke-dasharray: none; stroke-linecap: butt; stroke-linejoin: miter; stroke-miterlimit: 10; fill: none; fill-rule: nonzero; opacity: 1;" transform="translate(-1.9444444444444287 -1.9444444444444287) scale(3.89 3.89)" >
	<path d="M 25.933 59.332 c -11.585 0 -21.01 -9.426 -21.01 -21.01 c 0 -14.635 11.683 -28.103 19.415 -37.016 l 0.839 -0.968 c 0.38 -0.44 1.133 -0.44 1.513 0 l 0.839 0.968 c 7.731 8.913 19.415 22.381 19.415 37.016 C 46.944 49.906 37.518 59.332 25.933 59.332 z M 25.933 2.519 l -0.084 0.097 C 18.312 11.305 6.923 24.433 6.923 38.322 c 0 10.482 8.528 19.01 19.01 19.01 s 19.01 -8.528 19.01 -19.01 c 0 -13.888 -11.389 -27.017 -18.925 -35.705 L 25.933 2.519 z" style="stroke: none; stroke-width: 1; stroke-dasharray: none; stroke-linecap: butt; stroke-linejoin: miter; stroke-miterlimit: 10; fill: rgb(0,0,0); fill-rule: nonzero; opacity: 1;" transform=" matrix(1 0 0 1 0 0) " stroke-linecap="round" />
	<path d="M 26.277 49.585 c -6.754 0 -12.248 -5.494 -12.248 -12.248 c 0 -0.552 0.448 -1 1 -1 c 0.552 0 1 0.448 1 1 c 0 5.65 4.597 10.247 10.247 10.247 c 0.552 0 1 0.447 1 1 S 26.83 49.585 26.277 49.585 z" style="stroke: none; stroke-width: 1; stroke-dasharray: none; stroke-linecap: butt; stroke-linejoin: miter; stroke-miterlimit: 10; fill: rgb(0,0,0); fill-rule: nonzero; opacity: 1;" transform=" matrix(1 0 0 1 0 0) " stroke-linecap="round" />
	<path d="M 70.052 74.67 c -8.285 0 -15.025 -6.74 -15.025 -15.025 c 0 -10.369 8.233 -19.859 13.68 -26.139 l 0.589 -0.679 c 0.379 -0.44 1.133 -0.44 1.512 0 l 0.587 0.677 c 5.448 6.28 13.681 15.771 13.681 26.141 C 85.077 67.93 78.337 74.67 70.052 74.67 z M 70.052 35.008 C 64.8 41.065 57.028 50.124 57.028 59.645 c 0 7.182 5.843 13.025 13.025 13.025 c 7.181 0 13.024 -5.843 13.024 -13.025 C 83.076 50.125 75.305 41.065 70.052 35.008 z" style="stroke: none; stroke-width: 1; stroke-dasharray: none; stroke-linecap: butt; stroke-linejoin: miter; stroke-miterlimit: 10; fill: rgb(0,0,0); fill-rule: nonzero; opacity: 1;" transform=" matrix(1 0 0 1 0 0) " stroke-linecap="round" />
	<path d="M 70.294 67.838 c -4.898 0 -8.883 -3.985 -8.883 -8.883 c 0 -0.553 0.447 -1 1 -1 s 1 0.447 1 1 c 0 3.796 3.087 6.883 6.883 6.883 c 0.553 0 1 0.447 1 1 S 70.846 67.838 70.294 67.838 z" style="stroke: none; stroke-width: 1; stroke-dasharray: none; stroke-linecap: butt; stroke-linejoin: miter; stroke-miterlimit: 10; fill: rgb(0,0,0); fill-rule: nonzero; opacity: 1;" transform=" matrix(1 0 0 1 0 0) " stroke-linecap="round" />
	<path d="M 44.376 90.008 c -5.829 0 -10.572 -4.743 -10.572 -10.572 c 0 -7.195 5.665 -13.725 9.413 -18.046 l 0.402 -0.465 c 0.19 -0.22 0.466 -0.346 0.756 -0.346 l 0 0 c 0.291 0 0.567 0.126 0.756 0.346 l 0.404 0.467 c 3.748 4.321 9.411 10.851 9.411 18.044 C 54.948 85.265 50.206 90.008 44.376 90.008 z M 44.376 63.106 c -3.545 4.094 -8.571 10.092 -8.571 16.33 c 0 4.726 3.845 8.572 8.571 8.572 c 4.726 0 8.571 -3.845 8.571 -8.572 C 52.948 73.197 47.92 67.199 44.376 63.106 z" style="stroke: none; stroke-width: 1; stroke-dasharray: none; stroke-linecap: butt; stroke-linejoin: miter; stroke-miterlimit: 10; fill: rgb(0,0,0); fill-rule: nonzero; opacity: 1;" transform=" matrix(1 0 0 1 0 0) " stroke-linecap="round" />
	<path d="M 44.541 85.345 c -3.518 0 -6.381 -2.862 -6.381 -6.38 c 0 -0.553 0.448 -1 1 -1 s 1 0.447 1 1 c 0 2.414 1.965 4.38 4.38 4.38 c 0.552 0 1 0.447 1 1 S 45.093 85.345 44.541 85.345 z" style="stroke: none; stroke-width: 1; stroke-dasharray: none; stroke-linecap: butt; stroke-linejoin: miter; stroke-miterlimit: 10; fill: rgb(0,0,0); fill-rule: nonzero; opacity: 1;" transform=" matrix(1 0 0 1 0 0) " stroke-linecap="round" />
</g>
</svg>